<svg xmlns="http://www.w3.org/2000/svg" width="68" height="19" viewBox="0 0 68 19">
    <path fill="#00080F" fill-rule="nonzero" d="M9.714 7.201l-5.106 5.6 5.106 5.955h-3.19l-4.27-4.906v4.906H0V7.2h2.254v4.61l4.27-4.61h3.19zm0 5.537c0-3.354 2.661-6.062 6.137-6.062 3.476 0 6.134 2.708 6.134 6.062 0 3.353-2.673 6.018-6.134 6.018-3.46 0-6.137-2.665-6.137-6.018zm2.432-.045c0 2.043 1.596 3.704 3.691 3.704 2.154 0 3.72-1.69 3.72-3.704 0-2.017-1.582-3.664-3.706-3.664-2.126 0-3.705 1.647-3.705 3.664zM26.204 7.2h2.298l4.731 11.555h-2.69l-3.19-8.4-3.256 8.4h-2.623L26.204 7.2zm37.055 0L68 18.756h-2.667l-.9-2.317h-4.686l-.903 2.317H56.24L60.979 7.2h2.28zm-2.608 6.828H63.6l-1.473-3.665-1.475 3.665zm-9.776 2.368c1.417 0 2.471-.716 3.119-1.82l1.735 1.556c-1.041 1.615-2.753 2.623-4.843 2.623-3.328 0-5.894-2.665-5.894-6.018 0-3.354 2.557-6.062 5.894-6.062 1.987 0 3.613.912 4.673 2.394l-1.76 1.417c-.68-.928-1.65-1.458-2.913-1.458-2.04 0-3.558 1.647-3.558 3.664 0 2.043 1.533 3.704 3.547 3.704zm-17.642-3.414c0-3.354 2.546-6.062 5.887-6.062a5.771 5.771 0 0 1 4.85 2.59l-6.478 6.74a3.529 3.529 0 0 0 1.61.39c1.423 0 2.475-.715 3.118-1.82l1.735 1.556C42.91 17.993 41.205 19 39.12 19c-3.323 0-5.887-2.665-5.887-6.017zm2.742 1.712L40.8 9.692a3.529 3.529 0 0 0-1.68-.418c-2.041 0-3.556 1.646-3.556 3.663 0 .637.146 1.236.411 1.758zm.585-9.07c-.706 0-1.282-.589-1.282-1.31 0-.727.576-1.315 1.282-1.315.706 0 1.275.588 1.275 1.314 0 .722-.569 1.312-1.275 1.312zm5.876-1.31c0 .721-.57 1.31-1.277 1.31-.705 0-1.28-.589-1.28-1.31 0-.727.575-1.315 1.28-1.315.708 0 1.277.588 1.277 1.314z"/>
</svg>
